<mxfile host="app.diagrams.net" modified="2022-11-11T23:13:01.474Z" agent="5.0 (X11; Linux x86_64) AppleWebKit/537.36 (KHTML, like Gecko) Chrome/107.0.0.0 Safari/537.36" etag="3G3yhIHCwHBMwyN-4HEv" version="20.5.3" type="github">
  <diagram id="U536I7H5QlRx-HKjT8p6" name="Strona-1">
    <mxGraphModel dx="919" dy="591" grid="1" gridSize="10" guides="1" tooltips="1" connect="1" arrows="1" fold="1" page="1" pageScale="1" pageWidth="827" pageHeight="1169" math="0" shadow="0">
      <root>
        <mxCell id="0" />
        <mxCell id="1" parent="0" />
        <mxCell id="evRMGuefQmwozvT9XK5X-4" value="" style="rounded=1;whiteSpace=wrap;html=1;fillColor=#f5f5f5;fontColor=#333333;strokeColor=none;" vertex="1" parent="1">
          <mxGeometry x="130" y="15" width="150" height="90" as="geometry" />
        </mxCell>
        <mxCell id="evRMGuefQmwozvT9XK5X-7" style="edgeStyle=orthogonalEdgeStyle;rounded=0;orthogonalLoop=1;jettySize=auto;html=1;entryX=0;entryY=0.5;entryDx=0;entryDy=0;" edge="1" parent="1" source="evRMGuefQmwozvT9XK5X-6" target="evRMGuefQmwozvT9XK5X-4">
          <mxGeometry relative="1" as="geometry" />
        </mxCell>
        <mxCell id="evRMGuefQmwozvT9XK5X-6" value="" style="shape=actor;whiteSpace=wrap;html=1;" vertex="1" parent="1">
          <mxGeometry x="20" y="30" width="50" height="60" as="geometry" />
        </mxCell>
        <mxCell id="evRMGuefQmwozvT9XK5X-11" style="edgeStyle=orthogonalEdgeStyle;rounded=0;orthogonalLoop=1;jettySize=auto;html=1;entryX=0.067;entryY=0.444;entryDx=0;entryDy=0;entryPerimeter=0;fontSize=13;" edge="1" parent="1" source="evRMGuefQmwozvT9XK5X-8" target="evRMGuefQmwozvT9XK5X-10">
          <mxGeometry relative="1" as="geometry" />
        </mxCell>
        <mxCell id="evRMGuefQmwozvT9XK5X-8" value="&lt;font style=&quot;font-size: 13px;&quot;&gt;Browser&amp;nbsp;&lt;br&gt;Mobile / Desktop&lt;br&gt;&lt;/font&gt;" style="text;strokeColor=none;fillColor=none;html=1;fontSize=24;fontStyle=1;verticalAlign=middle;align=center;" vertex="1" parent="1">
          <mxGeometry x="145" y="15" width="120" height="80" as="geometry" />
        </mxCell>
        <mxCell id="evRMGuefQmwozvT9XK5X-10" value="" style="rounded=1;whiteSpace=wrap;html=1;fillColor=#f5f5f5;fontColor=#333333;strokeColor=none;" vertex="1" parent="1">
          <mxGeometry x="330" y="38.75" width="60" height="35" as="geometry" />
        </mxCell>
        <mxCell id="evRMGuefQmwozvT9XK5X-14" value="GraphQL" style="edgeStyle=orthogonalEdgeStyle;rounded=0;orthogonalLoop=1;jettySize=auto;html=1;entryX=0;entryY=0.5;entryDx=0;entryDy=0;fontSize=13;" edge="1" parent="1" source="evRMGuefQmwozvT9XK5X-12" target="evRMGuefQmwozvT9XK5X-13">
          <mxGeometry relative="1" as="geometry">
            <Array as="points">
              <mxPoint x="440" y="55" />
              <mxPoint x="440" y="56" />
            </Array>
          </mxGeometry>
        </mxCell>
        <mxCell id="evRMGuefQmwozvT9XK5X-20" style="edgeStyle=orthogonalEdgeStyle;rounded=0;orthogonalLoop=1;jettySize=auto;html=1;fontSize=13;fillColor=#f5f5f5;strokeColor=#666666;" edge="1" parent="1" source="evRMGuefQmwozvT9XK5X-12" target="evRMGuefQmwozvT9XK5X-18">
          <mxGeometry relative="1" as="geometry">
            <Array as="points">
              <mxPoint x="350" y="150" />
            </Array>
          </mxGeometry>
        </mxCell>
        <mxCell id="evRMGuefQmwozvT9XK5X-78" style="edgeStyle=orthogonalEdgeStyle;rounded=0;orthogonalLoop=1;jettySize=auto;html=1;fontSize=13;" edge="1" parent="1" source="evRMGuefQmwozvT9XK5X-12" target="evRMGuefQmwozvT9XK5X-77">
          <mxGeometry relative="1" as="geometry">
            <Array as="points">
              <mxPoint x="360" y="20" />
              <mxPoint x="740" y="20" />
            </Array>
          </mxGeometry>
        </mxCell>
        <mxCell id="evRMGuefQmwozvT9XK5X-12" value="&lt;b&gt;SPA&lt;/b&gt;" style="text;html=1;strokeColor=#b85450;fillColor=#f8cecc;align=center;verticalAlign=middle;whiteSpace=wrap;rounded=0;fontSize=13;" vertex="1" parent="1">
          <mxGeometry x="330" y="40" width="60" height="31.25" as="geometry" />
        </mxCell>
        <mxCell id="evRMGuefQmwozvT9XK5X-19" style="edgeStyle=orthogonalEdgeStyle;rounded=0;orthogonalLoop=1;jettySize=auto;html=1;entryX=1;entryY=0.5;entryDx=0;entryDy=0;fontSize=13;" edge="1" parent="1" source="evRMGuefQmwozvT9XK5X-13" target="evRMGuefQmwozvT9XK5X-18">
          <mxGeometry relative="1" as="geometry">
            <Array as="points">
              <mxPoint x="530" y="160" />
              <mxPoint x="240" y="160" />
            </Array>
          </mxGeometry>
        </mxCell>
        <mxCell id="evRMGuefQmwozvT9XK5X-13" value="&lt;b&gt;&amp;nbsp;API&lt;/b&gt;" style="rounded=1;whiteSpace=wrap;html=1;fillColor=#d5e8d4;strokeColor=#82b366;" vertex="1" parent="1">
          <mxGeometry x="500" y="28.75" width="70" height="45" as="geometry" />
        </mxCell>
        <mxCell id="evRMGuefQmwozvT9XK5X-16" value="Entry Points" style="text;html=1;strokeColor=none;fillColor=none;align=center;verticalAlign=middle;whiteSpace=wrap;rounded=0;fontSize=13;" vertex="1" parent="1">
          <mxGeometry x="580" y="42.5" width="110" height="25" as="geometry" />
        </mxCell>
        <mxCell id="evRMGuefQmwozvT9XK5X-28" style="edgeStyle=orthogonalEdgeStyle;rounded=0;orthogonalLoop=1;jettySize=auto;html=1;entryX=0.5;entryY=0;entryDx=0;entryDy=0;fontSize=13;" edge="1" parent="1" source="evRMGuefQmwozvT9XK5X-18" target="evRMGuefQmwozvT9XK5X-24">
          <mxGeometry relative="1" as="geometry" />
        </mxCell>
        <mxCell id="evRMGuefQmwozvT9XK5X-18" value="Http Cache" style="text;html=1;strokeColor=#d6b656;fillColor=#fff2cc;align=center;verticalAlign=middle;whiteSpace=wrap;rounded=0;fontSize=13;" vertex="1" parent="1">
          <mxGeometry x="160" y="140" width="80" height="30" as="geometry" />
        </mxCell>
        <mxCell id="evRMGuefQmwozvT9XK5X-35" style="edgeStyle=orthogonalEdgeStyle;rounded=0;orthogonalLoop=1;jettySize=auto;html=1;fontSize=13;" edge="1" parent="1" source="evRMGuefQmwozvT9XK5X-24" target="evRMGuefQmwozvT9XK5X-34">
          <mxGeometry relative="1" as="geometry" />
        </mxCell>
        <mxCell id="evRMGuefQmwozvT9XK5X-24" value="&lt;b&gt;Caddy server&lt;/b&gt;" style="rounded=1;whiteSpace=wrap;html=1;fillColor=#d5e8d4;strokeColor=#82b366;" vertex="1" parent="1">
          <mxGeometry x="240" y="260" width="90" height="40" as="geometry" />
        </mxCell>
        <mxCell id="evRMGuefQmwozvT9XK5X-32" value="Vue (Vite) or React&amp;nbsp;" style="text;html=1;strokeColor=#b85450;fillColor=#f8cecc;align=center;verticalAlign=middle;whiteSpace=wrap;rounded=0;fontSize=13;" vertex="1" parent="1">
          <mxGeometry x="295" width="75" height="31.25" as="geometry" />
        </mxCell>
        <mxCell id="evRMGuefQmwozvT9XK5X-41" value="" style="edgeStyle=orthogonalEdgeStyle;rounded=0;orthogonalLoop=1;jettySize=auto;html=1;fontSize=13;" edge="1" parent="1" source="evRMGuefQmwozvT9XK5X-34" target="evRMGuefQmwozvT9XK5X-40">
          <mxGeometry relative="1" as="geometry" />
        </mxCell>
        <mxCell id="evRMGuefQmwozvT9XK5X-34" value="&lt;b&gt;PHP FPM&lt;/b&gt;" style="rounded=1;whiteSpace=wrap;html=1;fillColor=#d5e8d4;strokeColor=#82b366;fontSize=13;" vertex="1" parent="1">
          <mxGeometry x="70" y="340" width="70" height="30" as="geometry" />
        </mxCell>
        <mxCell id="evRMGuefQmwozvT9XK5X-37" style="edgeStyle=orthogonalEdgeStyle;rounded=0;orthogonalLoop=1;jettySize=auto;html=1;entryX=0.5;entryY=1;entryDx=0;entryDy=0;fontSize=13;" edge="1" parent="1" source="evRMGuefQmwozvT9XK5X-36" target="evRMGuefQmwozvT9XK5X-24">
          <mxGeometry relative="1" as="geometry" />
        </mxCell>
        <mxCell id="evRMGuefQmwozvT9XK5X-38" style="edgeStyle=orthogonalEdgeStyle;rounded=0;orthogonalLoop=1;jettySize=auto;html=1;entryX=1;entryY=0.5;entryDx=0;entryDy=0;fontSize=13;" edge="1" parent="1" source="evRMGuefQmwozvT9XK5X-36" target="evRMGuefQmwozvT9XK5X-34">
          <mxGeometry relative="1" as="geometry" />
        </mxCell>
        <mxCell id="evRMGuefQmwozvT9XK5X-49" style="edgeStyle=orthogonalEdgeStyle;rounded=0;orthogonalLoop=1;jettySize=auto;html=1;entryX=0.02;entryY=0.39;entryDx=0;entryDy=0;entryPerimeter=0;fontSize=13;" edge="1" parent="1" source="evRMGuefQmwozvT9XK5X-36" target="evRMGuefQmwozvT9XK5X-47">
          <mxGeometry relative="1" as="geometry">
            <Array as="points">
              <mxPoint x="340" y="355" />
              <mxPoint x="340" y="226" />
            </Array>
          </mxGeometry>
        </mxCell>
        <mxCell id="evRMGuefQmwozvT9XK5X-36" value="Container: app-ppp" style="rounded=1;whiteSpace=wrap;html=1;fillColor=#dae8fc;strokeColor=#6c8ebf;fontSize=13;" vertex="1" parent="1">
          <mxGeometry x="195" y="340" width="70" height="30" as="geometry" />
        </mxCell>
        <mxCell id="evRMGuefQmwozvT9XK5X-43" style="edgeStyle=orthogonalEdgeStyle;rounded=0;orthogonalLoop=1;jettySize=auto;html=1;fontSize=13;" edge="1" parent="1" source="evRMGuefQmwozvT9XK5X-40" target="evRMGuefQmwozvT9XK5X-42">
          <mxGeometry relative="1" as="geometry">
            <Array as="points">
              <mxPoint x="370" y="400" />
            </Array>
          </mxGeometry>
        </mxCell>
        <mxCell id="evRMGuefQmwozvT9XK5X-60" style="edgeStyle=orthogonalEdgeStyle;rounded=0;orthogonalLoop=1;jettySize=auto;html=1;fontSize=13;" edge="1" parent="1" source="evRMGuefQmwozvT9XK5X-40" target="evRMGuefQmwozvT9XK5X-59">
          <mxGeometry relative="1" as="geometry" />
        </mxCell>
        <mxCell id="evRMGuefQmwozvT9XK5X-61" style="edgeStyle=orthogonalEdgeStyle;rounded=0;orthogonalLoop=1;jettySize=auto;html=1;entryX=0;entryY=0.75;entryDx=0;entryDy=0;fontSize=13;" edge="1" parent="1" source="evRMGuefQmwozvT9XK5X-40" target="evRMGuefQmwozvT9XK5X-58">
          <mxGeometry relative="1" as="geometry">
            <Array as="points">
              <mxPoint x="130" y="440" />
              <mxPoint x="130" y="533" />
            </Array>
          </mxGeometry>
        </mxCell>
        <mxCell id="evRMGuefQmwozvT9XK5X-71" style="edgeStyle=orthogonalEdgeStyle;rounded=0;orthogonalLoop=1;jettySize=auto;html=1;entryX=0;entryY=0.5;entryDx=0;entryDy=0;fontSize=13;" edge="1" parent="1" source="evRMGuefQmwozvT9XK5X-40" target="evRMGuefQmwozvT9XK5X-64">
          <mxGeometry relative="1" as="geometry" />
        </mxCell>
        <mxCell id="evRMGuefQmwozvT9XK5X-40" value="&lt;b&gt;Main Application&lt;/b&gt;" style="rounded=1;whiteSpace=wrap;html=1;fillColor=#f5f5f5;fontColor=#333333;strokeColor=none;fontSize=13;" vertex="1" parent="1">
          <mxGeometry x="30" y="400" width="90" height="50" as="geometry" />
        </mxCell>
        <mxCell id="evRMGuefQmwozvT9XK5X-46" style="edgeStyle=orthogonalEdgeStyle;rounded=0;orthogonalLoop=1;jettySize=auto;html=1;fontSize=13;" edge="1" parent="1" source="evRMGuefQmwozvT9XK5X-42" target="evRMGuefQmwozvT9XK5X-45">
          <mxGeometry relative="1" as="geometry" />
        </mxCell>
        <mxCell id="evRMGuefQmwozvT9XK5X-42" value="&lt;b&gt;Postgres&lt;/b&gt;" style="rounded=1;whiteSpace=wrap;html=1;fillColor=#ffe6cc;strokeColor=#d79b00;fontSize=13;" vertex="1" parent="1">
          <mxGeometry x="360" y="340" width="70" height="30" as="geometry" />
        </mxCell>
        <mxCell id="evRMGuefQmwozvT9XK5X-48" style="edgeStyle=orthogonalEdgeStyle;rounded=0;orthogonalLoop=1;jettySize=auto;html=1;fontSize=13;" edge="1" parent="1" source="evRMGuefQmwozvT9XK5X-45" target="evRMGuefQmwozvT9XK5X-47">
          <mxGeometry relative="1" as="geometry" />
        </mxCell>
        <mxCell id="evRMGuefQmwozvT9XK5X-45" value="Container: db-ppp" style="rounded=1;whiteSpace=wrap;html=1;fillColor=#dae8fc;strokeColor=#6c8ebf;fontSize=13;" vertex="1" parent="1">
          <mxGeometry x="360" y="290" width="70" height="30" as="geometry" />
        </mxCell>
        <mxCell id="evRMGuefQmwozvT9XK5X-47" value="" style="sketch=0;aspect=fixed;html=1;points=[];align=center;image;fontSize=12;image=img/lib/mscae/Docker.svg;" vertex="1" parent="1">
          <mxGeometry x="370" y="210" width="50" height="41" as="geometry" />
        </mxCell>
        <mxCell id="evRMGuefQmwozvT9XK5X-51" value="To be implemented" style="rounded=1;whiteSpace=wrap;html=1;fontSize=13;fillColor=#f8cecc;strokeColor=#b85450;" vertex="1" parent="1">
          <mxGeometry x="530" y="230" width="100" height="40" as="geometry" />
        </mxCell>
        <mxCell id="evRMGuefQmwozvT9XK5X-54" style="edgeStyle=orthogonalEdgeStyle;rounded=0;orthogonalLoop=1;jettySize=auto;html=1;fontSize=13;entryX=0.991;entryY=0.488;entryDx=0;entryDy=0;entryPerimeter=0;" edge="1" parent="1" source="evRMGuefQmwozvT9XK5X-52" target="evRMGuefQmwozvT9XK5X-47">
          <mxGeometry relative="1" as="geometry">
            <mxPoint x="495" y="245" as="targetPoint" />
            <Array as="points">
              <mxPoint x="460" y="230" />
            </Array>
          </mxGeometry>
        </mxCell>
        <mxCell id="evRMGuefQmwozvT9XK5X-52" value="Container: &lt;br&gt;cache-ppp" style="rounded=1;whiteSpace=wrap;html=1;fillColor=#dae8fc;strokeColor=#6c8ebf;fontSize=13;" vertex="1" parent="1">
          <mxGeometry x="460" y="290" width="70" height="30" as="geometry" />
        </mxCell>
        <mxCell id="evRMGuefQmwozvT9XK5X-55" value="" style="endArrow=none;dashed=1;html=1;dashPattern=1 3;strokeWidth=2;rounded=0;fontSize=13;fillColor=#f8cecc;strokeColor=#b85450;" edge="1" parent="1">
          <mxGeometry width="50" height="50" relative="1" as="geometry">
            <mxPoint x="450" y="620" as="sourcePoint" />
            <mxPoint x="450" y="310" as="targetPoint" />
          </mxGeometry>
        </mxCell>
        <mxCell id="evRMGuefQmwozvT9XK5X-63" style="edgeStyle=orthogonalEdgeStyle;rounded=0;orthogonalLoop=1;jettySize=auto;html=1;fontSize=13;" edge="1" parent="1" source="evRMGuefQmwozvT9XK5X-58" target="evRMGuefQmwozvT9XK5X-62">
          <mxGeometry relative="1" as="geometry" />
        </mxCell>
        <mxCell id="evRMGuefQmwozvT9XK5X-58" value="&lt;b&gt;Workers&lt;br&gt;&lt;br&gt;&lt;/b&gt;" style="rounded=1;whiteSpace=wrap;html=1;fillColor=#f5f5f5;fontColor=#333333;strokeColor=none;fontSize=13;" vertex="1" parent="1">
          <mxGeometry x="360" y="510" width="70" height="30" as="geometry" />
        </mxCell>
        <mxCell id="evRMGuefQmwozvT9XK5X-59" value="&lt;b&gt;Main Application&lt;/b&gt;" style="rounded=1;whiteSpace=wrap;html=1;fillColor=#f5f5f5;fontColor=#333333;strokeColor=none;fontSize=13;" vertex="1" parent="1">
          <mxGeometry x="70" y="585" width="70" height="30" as="geometry" />
        </mxCell>
        <mxCell id="evRMGuefQmwozvT9XK5X-62" value="&lt;b&gt;Workers&lt;br&gt;&lt;br&gt;&lt;/b&gt;" style="rounded=1;whiteSpace=wrap;html=1;fillColor=#f5f5f5;fontColor=#333333;strokeColor=none;fontSize=13;" vertex="1" parent="1">
          <mxGeometry x="475" y="485" width="70" height="30" as="geometry" />
        </mxCell>
        <mxCell id="evRMGuefQmwozvT9XK5X-66" style="edgeStyle=orthogonalEdgeStyle;rounded=0;orthogonalLoop=1;jettySize=auto;html=1;fontSize=13;" edge="1" parent="1" source="evRMGuefQmwozvT9XK5X-64" target="evRMGuefQmwozvT9XK5X-65">
          <mxGeometry relative="1" as="geometry" />
        </mxCell>
        <mxCell id="evRMGuefQmwozvT9XK5X-64" value="&lt;b&gt;Redis&lt;br&gt;&lt;/b&gt;" style="rounded=1;whiteSpace=wrap;html=1;fillColor=#f8cecc;strokeColor=#b85450;fontSize=13;" vertex="1" parent="1">
          <mxGeometry x="465" y="400" width="70" height="30" as="geometry" />
        </mxCell>
        <mxCell id="evRMGuefQmwozvT9XK5X-67" style="edgeStyle=orthogonalEdgeStyle;rounded=0;orthogonalLoop=1;jettySize=auto;html=1;fontSize=13;" edge="1" parent="1" source="evRMGuefQmwozvT9XK5X-65" target="evRMGuefQmwozvT9XK5X-52">
          <mxGeometry relative="1" as="geometry" />
        </mxCell>
        <mxCell id="evRMGuefQmwozvT9XK5X-65" value="" style="sketch=0;aspect=fixed;html=1;points=[];align=center;image;fontSize=12;image=img/lib/mscae/Cache_Redis_Product.svg;" vertex="1" parent="1">
          <mxGeometry x="475" y="340" width="50" height="42" as="geometry" />
        </mxCell>
        <mxCell id="evRMGuefQmwozvT9XK5X-79" style="edgeStyle=orthogonalEdgeStyle;rounded=0;orthogonalLoop=1;jettySize=auto;html=1;fontSize=13;" edge="1" parent="1" source="evRMGuefQmwozvT9XK5X-72" target="evRMGuefQmwozvT9XK5X-18">
          <mxGeometry relative="1" as="geometry">
            <Array as="points">
              <mxPoint x="180" y="177" />
            </Array>
          </mxGeometry>
        </mxCell>
        <mxCell id="evRMGuefQmwozvT9XK5X-72" value="Caching GraphQL queries will be added in later revisions, preferably in MVP 2.0, so at start mostly assets will be cached, client side" style="text;html=1;strokeColor=#b85450;fillColor=#f8cecc;align=center;verticalAlign=middle;whiteSpace=wrap;rounded=0;fontSize=13;" vertex="1" parent="1">
          <mxGeometry x="15" y="105" width="135" height="145" as="geometry" />
        </mxCell>
        <mxCell id="evRMGuefQmwozvT9XK5X-77" value="&lt;b&gt;SPA&lt;/b&gt;" style="text;html=1;strokeColor=#b85450;fillColor=#f8cecc;align=center;verticalAlign=middle;whiteSpace=wrap;rounded=0;fontSize=13;" vertex="1" parent="1">
          <mxGeometry x="710" y="288.75" width="60" height="31.25" as="geometry" />
        </mxCell>
      </root>
    </mxGraphModel>
  </diagram>
</mxfile>
